# xmcd CD database file
#
# Track frame offsets:
#	150
#	25585
#	47638
#
# Disc length: 856 seconds
#
# Revision: 0
# Processed by: cddbd v1.5.1PL2 Copyright (c) Steve Scherf et al.
# Submitted via: CDex 1.51
#
DISCID=18035603
DTITLE=Duel Jewel - The Birth
DYEAR=2003
DGENRE=Rock
TTITLE0=Tales
TTITLE1=『孤月』
TTITLE2=Trust
EXTD=YEAR: 2003
EXTT0=
EXTT1=
EXTT2=
PLAYORDER=
